<svg xmlns="http://www.w3.org/2000/svg" viewBox="0 0 1440 320"><path fill="#88AB8E" fill-opacity="1" d="M0,224L0,32L72,32L72,224L144,224L144,160L216,160L216,160L288,160L288,256L360,256L360,64L432,64L432,96L504,96L504,160L576,160L576,32L648,32L648,160L720,160L720,224L792,224L792,256L864,256L864,192L936,192L936,128L1008,128L1008,256L1080,256L1080,192L1152,192L1152,64L1224,64L1224,64L1296,64L1296,160L1368,160L1368,32L1440,32L1440,320L1368,320L1368,320L1296,320L1296,320L1224,320L1224,320L1152,320L1152,320L1080,320L1080,320L1008,320L1008,320L936,320L936,320L864,320L864,320L792,320L792,320L720,320L720,320L648,320L648,320L576,320L576,320L504,320L504,320L432,320L432,320L360,320L360,320L288,320L288,320L216,320L216,320L144,320L144,320L72,320L72,320L0,320L0,320Z"></path></svg>