<?xml version="1.0" encoding="UTF-8"?>
<svg xmlns:xodm="http://www.corel.com/coreldraw/odm/2003" xmlns="http://www.w3.org/2000/svg" xmlns:xlink="http://www.w3.org/1999/xlink" version="1.1" id="Layer_1" x="0px" y="0px" viewBox="0 0 2500 2214" style="enable-background:new 0 0 2500 2214;" xml:space="preserve">
<style type="text/css">
	.st0{fill:url(#SVGID_1_);}
</style>
<g id="Layer_x0020_1">
	
		<linearGradient id="SVGID_1_" gradientUnits="userSpaceOnUse" x1="209.7147" y1="350.5264" x2="2362.7148" y2="1912.5264" gradientTransform="matrix(1 0 0 -1 0 2211.8899)">
		<stop offset="0" style="stop-color:#A726C1"></stop>
		<stop offset="0.8784" style="stop-color:#803BDF"></stop>
		<stop offset="1" style="stop-color:#7B3FE4"></stop>
	</linearGradient>
	<path class="st0" d="M1856,1559l593-342c31-18,51-52,51-88V444c0-36-20-70-51-88L1856,14c-31-18-70-18-102,0l-593,342   c-31,18-51,52-51,88v1224l-416,240l-416-240v-480l416-240l274,158V784L745,655c-15-9-33-14-51-14s-35,5-51,14L50,997   c-31,18-51,52-51,88v685c0,36,20,70,51,88l593,342c31,18,70,18,102,0l593-342c31-18,51-52,51-88V546l8-4l408-236l416,240v480   l-416,240l-274-158v322l223,129C1785,1577,1824,1577,1856,1559L1856,1559z"></path>
</g>
</svg>
