<svg width="1399" height="1166" viewBox="0 0 1399 1166" fill="none" xmlns="http://www.w3.org/2000/svg">
<g opacity="0.6">
<path d="M860.939 1140.95C784.07 1140.95 709.813 1123.46 640.227 1088.95C619.445 1078.64 599.01 1066.71 579.339 1053.42C545.683 1061.98 510.855 1066.32 475.654 1066.32C401.762 1066.32 332.314 1049.29 269.239 1015.68C206.51 982.25 153.479 934.238 111.619 872.95C55.7923 791.216 25.0532 688.48 25.0532 583.66C25.0532 478.84 55.8183 376.069 111.68 294.352C196.84 169.754 326.108 101.13 475.671 101.13C510.056 101.13 544.146 105.28 577.177 113.485C596.761 100.062 617.135 88.0288 637.883 77.6275C707.46 42.7425 781.934 25.0569 859.246 25.0569C936.559 25.0569 1007.93 42.2216 1076.34 76.0734C1139.6 107.381 1195.21 151.27 1241.62 206.506C1327 308.113 1374.01 442.054 1373.96 583.66C1373.95 652.709 1363.13 719.519 1341.82 782.23C1319.43 848.093 1286.15 907.723 1242.87 959.477C1196.49 1014.95 1140.81 1058.95 1077.37 1090.27C1009.28 1123.9 936.489 1140.96 861.017 1140.97H860.939V1140.95Z" stroke="url(#paint0_linear_646_2130)" stroke-miterlimit="10"/>
<path d="M860.939 1116.34C787.898 1116.34 717.313 1099.7 651.156 1066.89C628.065 1055.45 605.512 1041.95 583.957 1026.68C548.982 1036.64 512.608 1041.7 475.654 1041.7C405.842 1041.7 340.284 1025.64 280.811 993.945C221.624 962.411 171.535 917.03 131.941 859.059C78.8836 781.37 49.6636 683.566 49.6636 583.651C49.6636 483.736 78.9009 385.906 131.993 308.226C212.431 190.539 334.485 125.727 475.671 125.727C511.845 125.727 547.532 130.58 581.952 140.182C603.394 124.789 625.868 111.167 648.908 99.6193C715.03 66.462 785.797 49.6533 859.246 49.6533C932.696 49.6533 1000.44 65.9585 1065.43 98.1173C1125.62 127.915 1178.57 169.702 1222.78 222.325C1304.44 319.504 1349.4 447.818 1349.36 583.634C1349.35 649.983 1338.97 714.136 1318.53 774.286C1297.12 837.266 1265.32 894.248 1224.01 943.658C1179.84 996.48 1126.84 1038.37 1066.49 1068.18C1001.82 1100.12 932.687 1116.32 861.026 1116.34H860.957H860.939Z" stroke="url(#paint1_linear_646_2130)" stroke-miterlimit="10"/>
<path d="M860.939 1091.73C791.726 1091.73 724.822 1075.96 662.085 1044.85C636.633 1032.22 611.944 1017.03 588.532 999.597C552.289 1011.21 514.388 1017.1 475.654 1017.1C409.913 1017.1 348.253 1002.01 292.382 972.24C236.737 942.59 189.591 899.848 152.263 845.193C101.966 771.56 74.2653 678.678 74.2653 583.668C74.2653 488.659 101.983 395.76 152.307 322.135C228.022 211.359 342.853 150.358 475.671 150.358C513.65 150.358 550.935 156.045 586.691 167.271C609.956 149.689 634.541 134.365 659.932 121.637C722.6 90.2165 789.66 74.2847 859.238 74.2847C928.815 74.2847 992.941 89.7303 1054.51 120.196C1111.64 148.474 1161.92 188.169 1203.94 238.178C1281.88 330.93 1324.79 453.618 1324.75 583.651C1324.73 647.309 1314.8 708.787 1295.22 766.385C1274.79 826.483 1244.48 880.816 1205.12 927.891C1163.16 978.074 1112.85 1017.86 1055.58 1046.13C994.321 1076.39 928.859 1091.73 861.009 1091.75H860.948L860.939 1091.73Z" stroke="url(#paint2_linear_646_2130)" stroke-miterlimit="10"/>
<path d="M860.939 1067.12C795.546 1067.12 732.323 1052.21 673.015 1022.8C645.114 1008.97 618.273 991.931 593.037 972.057C555.605 985.619 516.194 992.487 475.645 992.487C413.984 992.487 356.213 978.369 303.936 950.517C251.834 922.76 207.63 882.648 172.568 831.31C125.04 761.723 98.8583 673.772 98.8583 583.669C98.8583 493.565 125.049 405.597 172.603 336.027C243.587 232.17 351.213 174.972 475.654 174.972C515.482 174.972 554.346 181.631 591.37 194.794C616.415 174.764 643.126 157.59 670.949 143.638C730.161 113.945 793.506 98.8901 859.229 98.8901C924.952 98.8901 985.45 113.476 1043.59 142.249C1097.66 169.016 1145.27 206.619 1185.09 254.006C1259.32 342.33 1300.17 459.392 1300.14 583.634C1300.12 644.591 1290.64 703.413 1271.92 758.458C1252.47 815.665 1223.65 867.359 1186.24 912.098C1146.49 959.642 1098.87 997.305 1044.69 1024.05C986.839 1052.62 925.039 1067.11 861 1067.13H860.939V1067.12Z" stroke="url(#paint3_linear_646_2130)" stroke-miterlimit="10"/>
<path d="M860.939 1042.5C799.374 1042.5 739.823 1028.46 683.944 1000.75C653.508 985.663 624.479 966.588 597.482 943.953C558.956 959.833 518.051 967.873 475.654 967.873C418.073 967.873 364.191 954.719 315.517 928.794C266.956 902.921 225.695 865.449 192.899 817.428C148.131 751.886 123.477 668.867 123.477 583.66C123.477 498.453 148.14 415.425 192.933 349.901C259.195 252.956 359.607 199.569 475.662 199.569C517.383 199.569 557.793 207.391 596.015 222.854C622.787 200.055 651.642 180.833 681.982 165.621C737.739 137.665 797.377 123.487 859.238 123.487C921.098 123.487 977.967 137.213 1032.68 164.293C1083.69 189.541 1128.63 225.051 1166.26 269.825C1236.76 353.721 1275.57 465.157 1275.54 583.617C1275.52 641.874 1266.47 698.03 1248.63 750.523C1230.16 804.847 1202.83 853.893 1167.38 896.297C1129.83 941.192 1084.9 976.746 1033.81 1001.98C979.382 1028.86 921.245 1042.5 861.017 1042.5H860.965H860.939Z" stroke="url(#paint4_linear_646_2130)" stroke-miterlimit="10"/>
<path d="M860.939 1017.9C803.202 1017.9 747.323 1004.71 694.873 978.708C661.773 962.299 630.539 940.958 601.814 915.137C562.307 933.812 519.944 943.267 475.645 943.267C422.136 943.267 372.151 931.086 327.08 907.071C282.061 883.082 243.743 848.249 213.212 803.545C171.214 742.058 148.079 663.97 148.079 583.66C148.079 503.35 171.222 425.262 213.238 363.792C274.777 273.758 367.967 224.183 475.654 224.183C519.249 224.183 561.265 233.42 600.564 251.653C629.002 225.659 660.028 204.161 692.998 187.631C745.301 161.402 801.232 148.101 859.22 148.101C917.209 148.101 970.458 160.968 1021.74 186.354C1069.7 210.091 1111.97 243.5 1147.4 285.661C1214.17 365.129 1250.94 470.939 1250.9 583.608C1250.89 639.165 1242.27 692.665 1225.3 742.596C1207.82 794.038 1181.97 840.435 1148.47 880.504C1113.14 922.76 1070.89 956.204 1022.88 979.906C971.864 1005.1 917.391 1017.88 860.974 1017.89H860.922L860.939 1017.9Z" stroke="url(#paint5_linear_646_2130)" stroke-miterlimit="10"/>
<path d="M860.939 993.285C807.022 993.285 754.832 980.957 705.802 956.655C669.898 938.857 636.407 914.92 606.024 885.383C565.666 907.471 521.871 918.653 475.654 918.653C376.335 918.653 290.351 872.846 233.534 789.662C194.296 732.221 172.69 659.065 172.69 583.66C172.69 508.255 194.305 435.108 233.552 377.684C290.359 294.569 376.344 248.797 475.654 248.797C516.367 248.797 555.57 257.574 592.16 274.895C596.536 276.962 600.807 279.115 605.026 281.372C635.044 251.644 668.275 227.551 704.031 209.631C752.879 185.139 805.103 172.715 859.229 172.715C913.355 172.715 962.975 184.722 1010.84 208.416C1055.73 230.633 1095.34 261.95 1128.57 301.497C1191.62 376.529 1226.34 476.721 1226.31 583.608C1226.29 636.474 1218.12 687.299 1202.02 734.686C1185.52 783.246 1161.15 826.995 1129.61 864.728C1096.49 904.336 1056.92 935.67 1012 957.845C964.398 981.356 913.589 993.277 860.983 993.285H860.939Z" stroke="url(#paint6_linear_646_2130)" stroke-miterlimit="10"/>
<path d="M860.939 968.671C810.85 968.671 762.332 957.211 716.732 934.602C677.824 915.311 642.024 888.379 610.043 854.388C607.934 855.734 605.815 857.053 603.671 858.347C564.381 882.032 521.307 894.039 475.645 894.039C384.704 894.039 305.933 852.035 253.839 775.779C217.37 722.384 197.283 654.159 197.283 583.66C197.283 513.161 217.37 444.945 253.856 391.575C305.942 315.372 384.704 273.411 475.645 273.411C512.695 273.411 548.348 281.398 581.63 297.148C591.136 301.645 600.312 306.681 609.323 312.35C640.843 278.151 676.331 251.054 715.047 231.641C760.449 208.876 808.949 197.337 859.22 197.337C909.491 197.337 955.474 208.494 999.921 230.486C1041.75 251.193 1078.69 280.417 1109.73 317.343C1169.06 387.946 1201.72 482.512 1201.69 583.617C1201.68 633.782 1193.95 681.951 1178.71 726.777C1163.19 772.454 1140.31 813.555 1110.72 848.953C1079.8 885.921 1042.92 915.137 1001.09 935.792C956.907 957.61 909.761 968.68 860.965 968.689H860.922L860.939 968.671Z" stroke="url(#paint7_linear_646_2130)" stroke-miterlimit="10"/>
<path d="M860.939 944.066C767.871 944.066 680.975 900.82 613.845 821.708C606.276 827.464 598.697 832.622 590.98 837.275C555.579 858.616 516.775 869.434 475.654 869.434C393.09 869.434 321.533 831.241 274.17 761.896C240.47 712.556 221.902 649.254 221.902 583.66C221.902 518.066 240.47 454.782 274.178 405.458C321.533 336.174 393.09 298.016 475.654 298.016C509.032 298.016 541.151 305.205 571.118 319.383C585.711 326.285 599.704 334.75 613.455 345.013C679.464 265.432 765.892 221.934 859.238 221.934C904.335 221.934 948 232.231 989.026 252.53C1027.8 271.718 1062.07 298.85 1090.91 333.17C1146.52 399.346 1177.12 488.286 1177.11 583.599C1177.1 631.065 1169.81 676.568 1155.43 718.842C1140.89 761.636 1119.5 800.089 1091.86 833.151C1063.15 867.481 1028.96 894.586 990.224 913.713C949.45 933.847 905.967 944.057 860.983 944.066H860.948H860.939Z" stroke="url(#paint8_linear_646_2130)" stroke-miterlimit="10"/>
<path d="M860.939 919.452C768.097 919.452 681.704 872.351 617.422 786.753C606.692 796.417 593.567 806.974 578.271 816.186C546.759 835.183 512.226 844.811 475.645 844.811C401.458 844.811 337.115 810.43 294.483 748.005C263.544 702.71 246.503 644.34 246.503 583.651C246.503 522.963 263.544 464.61 294.492 419.341C337.124 356.968 401.458 322.621 475.654 322.621C542.184 322.621 588.384 354.181 617.379 379.993C680.35 293.909 766.143 246.539 859.229 246.539C900.507 246.539 940.508 255.977 978.106 274.583C1013.81 292.26 1045.42 317.29 1072.06 348.998C1123.95 410.745 1152.51 494.06 1152.49 583.59C1152.48 628.364 1145.62 671.202 1132.12 710.923C1118.55 750.835 1098.66 786.641 1072.97 817.367C1046.48 849.057 1014.96 874.044 979.321 891.643C941.967 910.093 902.147 919.443 860.965 919.452H860.93H860.939Z" stroke="url(#paint9_linear_646_2130)" stroke-miterlimit="10"/>
<path d="M860.939 894.838C775.345 894.838 695.342 850.515 635.661 770.04L632.813 766.194C628.664 760.585 624.445 754.89 620.391 749.663C593.575 776.786 549.277 820.197 475.654 820.197C409.844 820.197 352.723 789.627 314.805 734.122C286.635 692.873 271.114 639.434 271.114 583.651C271.114 527.868 286.627 474.447 314.805 433.232C352.715 377.771 409.835 347.235 475.654 347.235C548.817 347.235 593.437 389.891 620.651 417.214C624.905 411.631 629.289 405.545 633.603 399.554L635.756 396.567C694.118 315.693 773.479 271.153 859.229 271.153C896.696 271.153 933.017 279.731 967.194 296.644C999.834 312.802 1028.78 335.74 1053.22 364.834C1101.39 422.154 1127.9 499.842 1127.89 583.582C1127.88 625.656 1121.46 665.828 1108.83 702.996C1096.24 740.026 1077.83 773.183 1054.1 801.574C1029.81 830.616 1000.99 853.493 968.426 869.573C934.484 886.329 898.328 894.838 860.965 894.838H860.93H860.939Z" stroke="url(#paint10_linear_646_2130)" stroke-miterlimit="10"/>
<path d="M860.939 870.233C783.332 870.233 710.342 829.444 655.418 755.385L652.58 751.547C642.918 738.489 632.935 724.997 624.245 716.419C623.368 715.551 622.57 714.804 621.866 714.17C616.276 718.815 607.769 727.428 604.461 730.779C578.974 756.591 540.457 795.6 475.645 795.6C418.212 795.6 368.305 768.842 335.118 720.248C309.709 683.053 295.716 634.537 295.716 583.66C295.716 532.782 309.709 484.301 335.118 447.132C368.297 398.59 418.212 371.849 475.654 371.849C540.908 371.849 579.92 411.127 605.737 437.122C608.862 440.273 616.693 448.157 622.222 452.889C623.047 452.133 623.967 451.248 624.992 450.215C634.072 441.003 643.985 427.241 653.578 413.94L655.722 410.971C709.327 336.686 781.604 295.776 859.238 295.776C892.885 295.776 925.534 303.494 956.282 318.714C985.857 333.352 1012.14 354.207 1034.38 380.679C1078.83 433.571 1103.29 505.633 1103.28 583.59C1103.27 622.964 1097.29 660.48 1085.53 695.087C1073.93 729.234 1057 759.752 1035.23 785.79C1013.15 812.192 987.012 832.96 957.54 847.511C927.018 862.584 894.526 870.233 860.965 870.233H860.939Z" stroke="url(#paint11_linear_646_2130)" stroke-miterlimit="10"/>
<path d="M860.939 845.619C791.318 845.619 725.352 808.363 675.185 740.721L672.355 736.892C662.137 723.087 651.581 708.822 641.538 698.907C630.799 688.306 625.261 687.16 623.377 687.16C614.453 687.16 606.458 693.733 586.952 713.485C562.993 737.751 530.17 770.987 475.645 770.987C426.589 770.987 383.896 748.04 355.44 706.365C332.801 673.217 320.326 629.641 320.326 583.66C320.326 537.679 332.792 494.138 355.432 461.015C383.888 419.384 426.581 396.455 475.654 396.455C530.665 396.455 563.965 429.985 588.28 454.46C607.248 473.561 615.399 480.342 623.342 480.342C624.861 480.342 630.747 479.413 642.51 467.492C652.927 456.926 663.405 442.383 673.544 428.318L675.68 425.349C724.527 357.645 789.712 320.373 859.229 320.373C889.057 320.373 918.034 327.231 945.361 340.758C971.881 353.886 995.493 372.639 1015.54 396.498C1056.26 444.962 1078.67 511.398 1078.66 583.564C1078.65 620.238 1073.12 655.088 1062.22 687.151C1051.6 718.407 1036.16 746.286 1016.34 769.988C996.466 793.751 973.019 812.401 946.629 825.433C919.518 838.821 890.697 845.61 860.948 845.61H860.922L860.939 845.619Z" stroke="url(#paint12_linear_646_2130)" stroke-miterlimit="10"/>
<path d="M860.939 821.005C799.305 821.005 740.361 787.292 694.951 726.056L692.13 722.245C670.41 692.899 647.953 662.546 623.377 662.546C603.663 662.546 590.042 675.326 569.451 696.181C547.375 718.538 519.892 746.364 475.654 746.364C434.975 746.364 399.505 727.228 375.762 692.474C355.883 663.371 344.936 624.727 344.936 583.651C344.936 542.576 355.883 503.966 375.745 474.898C399.479 440.178 434.958 421.06 475.654 421.06C520.43 421.06 548.365 449.199 570.823 471.799C591.232 492.349 604.687 504.947 623.342 504.947C648.647 504.947 672.476 471.877 693.501 442.705L695.637 439.744C739.727 378.639 797.829 344.987 859.229 344.987C885.237 344.987 910.542 350.986 934.449 362.82C957.905 374.428 978.852 391.089 996.709 412.334C1033.71 456.37 1054.08 517.18 1054.06 583.564C1054.05 617.546 1048.97 649.731 1038.94 679.233C1029.3 707.607 1015.35 732.837 997.473 754.204C979.816 775.319 959.051 791.859 935.751 803.362C912.061 815.066 886.895 820.996 860.957 820.996H860.939V821.005Z" stroke="url(#paint13_linear_646_2130)" stroke-miterlimit="10"/>
<path d="M1029.45 583.556C1029.4 784.948 836.52 875.642 714.709 711.392C689.04 676.776 661.738 637.932 623.368 637.932C560.423 637.932 542.54 721.759 475.636 721.759C334.25 721.759 334.077 445.674 475.636 445.674C543.061 445.674 562.159 529.561 623.325 529.561C662.337 529.561 690.724 488.581 715.577 454.148C834.514 289.316 1029.49 383.171 1029.44 583.556H1029.45Z" stroke="url(#paint14_linear_646_2130)" stroke-miterlimit="10"/>
</g>
<defs>
<linearGradient id="paint0_linear_646_2130" x1="158.832" y1="1209.52" x2="715.52" y2="-358.759" gradientUnits="userSpaceOnUse">
<stop offset="0.0885417" stop-color="#5B8281" stop-opacity="0.1"/>
<stop offset="0.34375" stop-color="#032B1E"/>
<stop offset="0.661458" stop-color="#5B8281" stop-opacity="0.1"/>
<stop offset="1" stop-color="#5B8281" stop-opacity="0.37"/>
</linearGradient>
<linearGradient id="paint1_linear_646_2130" x1="178.562" y1="1181.86" x2="707.411" y2="-319.882" gradientUnits="userSpaceOnUse">
<stop offset="0.0885417" stop-color="#5B8281" stop-opacity="0.1"/>
<stop offset="0.34375" stop-color="#032B1E"/>
<stop offset="0.661458" stop-color="#5B8281" stop-opacity="0.1"/>
<stop offset="1" stop-color="#5B8281" stop-opacity="0.37"/>
</linearGradient>
<linearGradient id="paint2_linear_646_2130" x1="198.283" y1="1154.25" x2="699.336" y2="-280.913" gradientUnits="userSpaceOnUse">
<stop offset="0.0885417" stop-color="#5B8281" stop-opacity="0.1"/>
<stop offset="0.34375" stop-color="#032B1E"/>
<stop offset="0.661458" stop-color="#5B8281" stop-opacity="0.1"/>
<stop offset="1" stop-color="#5B8281" stop-opacity="0.37"/>
</linearGradient>
<linearGradient id="paint3_linear_646_2130" x1="217.996" y1="1126.61" x2="691.285" y2="-241.905" gradientUnits="userSpaceOnUse">
<stop offset="0.0885417" stop-color="#5B8281" stop-opacity="0.1"/>
<stop offset="0.541667" stop-color="#5B8281"/>
<stop offset="0.71875" stop-color="#5B8281" stop-opacity="0.1"/>
<stop offset="1" stop-color="#5B8281" stop-opacity="0.37"/>
</linearGradient>
<linearGradient id="paint4_linear_646_2130" x1="237.734" y1="1098.96" x2="683.319" y2="-202.83" gradientUnits="userSpaceOnUse">
<stop offset="0.0885417" stop-color="#5B8281" stop-opacity="0.1"/>
<stop offset="0.34375" stop-color="#032B1E"/>
<stop offset="0.661458" stop-color="#5B8281" stop-opacity="0.1"/>
<stop offset="1" stop-color="#5B8281" stop-opacity="0.37"/>
</linearGradient>
<linearGradient id="paint5_linear_646_2130" x1="257.452" y1="1071.33" x2="675.393" y2="-163.65" gradientUnits="userSpaceOnUse">
<stop offset="0.0885417" stop-color="#5B8281" stop-opacity="0.1"/>
<stop offset="0.541667" stop-color="#5B8281"/>
<stop offset="0.71875" stop-color="#5B8281" stop-opacity="0.1"/>
<stop offset="1" stop-color="#5B8281" stop-opacity="0.37"/>
</linearGradient>
<linearGradient id="paint6_linear_646_2130" x1="277.183" y1="1043.69" x2="667.524" y2="-124.384" gradientUnits="userSpaceOnUse">
<stop offset="0.0885417" stop-color="#5B8281" stop-opacity="0.1"/>
<stop offset="0.34375" stop-color="#032B1E"/>
<stop offset="0.661458" stop-color="#5B8281" stop-opacity="0.1"/>
<stop offset="1" stop-color="#5B8281" stop-opacity="0.37"/>
</linearGradient>
<linearGradient id="paint7_linear_646_2130" x1="296.895" y1="1016.07" x2="659.722" y2="-84.9992" gradientUnits="userSpaceOnUse">
<stop offset="0.0885417" stop-color="#5B8281" stop-opacity="0.1"/>
<stop offset="0.541667" stop-color="#5B8281"/>
<stop offset="0.71875" stop-color="#5B8281" stop-opacity="0.1"/>
<stop offset="1" stop-color="#5B8281" stop-opacity="0.37"/>
</linearGradient>
<linearGradient id="paint8_linear_646_2130" x1="316.635" y1="988.427" x2="652.032" y2="-45.519" gradientUnits="userSpaceOnUse">
<stop offset="0.0885417" stop-color="#5B8281" stop-opacity="0.1"/>
<stop offset="0.34375" stop-color="#032B1E"/>
<stop offset="0.661458" stop-color="#5B8281" stop-opacity="0.1"/>
<stop offset="1" stop-color="#5B8281" stop-opacity="0.37"/>
</linearGradient>
<linearGradient id="paint9_linear_646_2130" x1="336.355" y1="960.789" x2="644.432" y2="-5.88356" gradientUnits="userSpaceOnUse">
<stop offset="0.0885417" stop-color="#5B8281" stop-opacity="0.1"/>
<stop offset="0.34375" stop-color="#032B1E"/>
<stop offset="0.661458" stop-color="#5B8281" stop-opacity="0.1"/>
<stop offset="1" stop-color="#5B8281" stop-opacity="0.37"/>
</linearGradient>
<linearGradient id="paint10_linear_646_2130" x1="356.085" y1="933.151" x2="636.957" y2="33.9266" gradientUnits="userSpaceOnUse">
<stop offset="0.0885417" stop-color="#5B8281" stop-opacity="0.1"/>
<stop offset="0.34375" stop-color="#032B1E"/>
<stop offset="0.661458" stop-color="#5B8281" stop-opacity="0.1"/>
<stop offset="1" stop-color="#5B8281" stop-opacity="0.37"/>
</linearGradient>
<linearGradient id="paint11_linear_646_2130" x1="375.806" y1="905.522" x2="629.627" y2="73.9412" gradientUnits="userSpaceOnUse">
<stop offset="0.0885417" stop-color="#5B8281" stop-opacity="0.1"/>
<stop offset="0.34375" stop-color="#032B1E"/>
<stop offset="0.661458" stop-color="#5B8281" stop-opacity="0.1"/>
<stop offset="1" stop-color="#5B8281" stop-opacity="0.37"/>
</linearGradient>
<linearGradient id="paint12_linear_646_2130" x1="395.534" y1="877.885" x2="622.511" y2="114.162" gradientUnits="userSpaceOnUse">
<stop offset="0.0885417" stop-color="#5B8281" stop-opacity="0.1"/>
<stop offset="0.34375" stop-color="#032B1E"/>
<stop offset="0.661458" stop-color="#5B8281" stop-opacity="0.1"/>
<stop offset="1" stop-color="#5B8281" stop-opacity="0.37"/>
</linearGradient>
<linearGradient id="paint13_linear_646_2130" x1="415.264" y1="850.247" x2="615.612" y2="154.674" gradientUnits="userSpaceOnUse">
<stop offset="0.0885417" stop-color="#5B8281" stop-opacity="0.1"/>
<stop offset="0.34375" stop-color="#032B1E"/>
<stop offset="0.661458" stop-color="#5B8281" stop-opacity="0.1"/>
<stop offset="1" stop-color="#5B8281" stop-opacity="0.37"/>
</linearGradient>
<linearGradient id="paint14_linear_646_2130" x1="434.98" y1="822.609" x2="608.999" y2="195.517" gradientUnits="userSpaceOnUse">
<stop offset="0.0885417" stop-color="#5B8281" stop-opacity="0.1"/>
<stop offset="0.34375" stop-color="#032B1E"/>
<stop offset="0.661458" stop-color="#5B8281" stop-opacity="0.1"/>
<stop offset="1" stop-color="#5B8281" stop-opacity="0.37"/>
</linearGradient>
</defs>
</svg>
